<svg width="31" height="30" viewBox="0 0 31 30" fill="none" xmlns="http://www.w3.org/2000/svg">
<path d="M9.99722 2.57788H20.4559C24.4401 2.57788 27.6773 5.81509 27.6773 9.79934V20.258C27.6773 22.1733 26.9165 24.0101 25.5622 25.3644C24.2079 26.7186 22.3711 27.4795 20.4559 27.4795H9.99722C6.01296 27.4795 2.77576 24.2423 2.77576 20.258V9.79934C2.77576 7.88409 3.53659 6.04728 4.89087 4.693C6.24516 3.33871 8.08197 2.57788 9.99722 2.57788ZM9.7482 5.06804C8.55942 5.06804 7.41934 5.54028 6.57875 6.38087C5.73815 7.22146 5.26592 8.36155 5.26592 9.55032V20.507C5.26592 22.9847 7.27049 24.9893 9.7482 24.9893H20.7049C21.8937 24.9893 23.0338 24.5171 23.8744 23.6765C24.7149 22.8359 25.1872 21.6958 25.1872 20.507V9.55032C25.1872 7.07262 23.1826 5.06804 20.7049 5.06804H9.7482ZM21.7632 6.93566C22.176 6.93566 22.5718 7.09963 22.8637 7.3915C23.1556 7.68337 23.3196 8.07924 23.3196 8.49201C23.3196 8.90478 23.1556 9.30064 22.8637 9.59251C22.5718 9.88438 22.176 10.0484 21.7632 10.0484C21.3504 10.0484 20.9546 9.88438 20.6627 9.59251C20.3708 9.30064 20.2069 8.90478 20.2069 8.49201C20.2069 8.07924 20.3708 7.68337 20.6627 7.3915C20.9546 7.09963 21.3504 6.93566 21.7632 6.93566ZM15.2265 8.80328C16.8776 8.80328 18.4611 9.45917 19.6286 10.6267C20.7961 11.7941 21.4519 13.3776 21.4519 15.0287C21.4519 16.6798 20.7961 18.2632 19.6286 19.4307C18.4611 20.5982 16.8776 21.2541 15.2265 21.2541C13.5755 21.2541 11.992 20.5982 10.8245 19.4307C9.65704 18.2632 9.00115 16.6798 9.00115 15.0287C9.00115 13.3776 9.65704 11.7941 10.8245 10.6267C11.992 9.45917 13.5755 8.80328 15.2265 8.80328ZM15.2265 11.2934C14.2359 11.2934 13.2858 11.687 12.5853 12.3875C11.8848 13.088 11.4913 14.038 11.4913 15.0287C11.4913 16.0193 11.8848 16.9694 12.5853 17.6699C13.2858 18.3704 14.2359 18.7639 15.2265 18.7639C16.2172 18.7639 17.1673 18.3704 17.8678 17.6699C18.5683 16.9694 18.9618 16.0193 18.9618 15.0287C18.9618 14.038 18.5683 13.088 17.8678 12.3875C17.1673 11.687 16.2172 11.2934 15.2265 11.2934Z" fill="#3D3D3D"/>
</svg>
