<svg width="254" height="81" viewBox="0 0 254 81" fill="none" xmlns="http://www.w3.org/2000/svg">
<rect x="31" y="20" width="89" height="35" fill="white"/>
<rect x="31" y="20" width="89" height="35" stroke="black"/>
<path d="M68.16 29.28H81.08V35.4H68.16V29.28ZM68.72 45H60.8V17H82.76V23.12H68.72V45ZM86.1041 45V15.32H93.7041V45H86.1041ZM107.763 45.36C106.003 45.36 104.416 45.0133 103.003 44.32C101.616 43.6267 100.523 42.5467 99.7231 41.08C98.9498 39.5867 98.5631 37.7067 98.5631 35.44V23.32H106.163V34.2C106.163 35.88 106.47 37.08 107.083 37.8C107.723 38.52 108.616 38.88 109.763 38.88C110.51 38.88 111.19 38.7067 111.803 38.36C112.416 38.0133 112.91 37.4667 113.283 36.72C113.656 35.9467 113.843 34.96 113.843 33.76V23.32H121.443V45H114.203V38.88L115.603 40.6C114.856 42.2 113.776 43.4 112.363 44.2C110.95 44.9733 109.416 45.36 107.763 45.36ZM137.698 45.36C135.138 45.36 132.898 44.88 130.978 43.92C129.085 42.9333 127.605 41.6 126.538 39.92C125.498 38.2133 124.978 36.28 124.978 34.12C124.978 31.96 125.485 30.04 126.498 28.36C127.538 26.6533 128.965 25.3333 130.778 24.4C132.592 23.44 134.632 22.96 136.898 22.96C139.032 22.96 140.978 23.4 142.738 24.28C144.498 25.1333 145.898 26.4 146.938 28.08C147.978 29.76 148.498 31.8 148.498 34.2C148.498 34.4667 148.485 34.7733 148.458 35.12C148.432 35.4667 148.405 35.7867 148.378 36.08H131.218V32.08H144.338L141.458 33.2C141.485 32.2133 141.298 31.36 140.898 30.64C140.525 29.92 139.992 29.36 139.298 28.96C138.632 28.56 137.845 28.36 136.938 28.36C136.032 28.36 135.232 28.56 134.538 28.96C133.872 29.36 133.352 29.9333 132.978 30.68C132.605 31.4 132.418 32.2533 132.418 33.24V34.4C132.418 35.4667 132.632 36.3867 133.058 37.16C133.512 37.9333 134.152 38.5333 134.978 38.96C135.805 39.36 136.792 39.56 137.938 39.56C139.005 39.56 139.912 39.4133 140.658 39.12C141.432 38.8 142.192 38.32 142.938 37.68L146.938 41.84C145.898 42.9867 144.618 43.8667 143.098 44.48C141.578 45.0667 139.778 45.36 137.698 45.36ZM166.123 22.96C167.803 22.96 169.323 23.3067 170.682 24C172.043 24.6667 173.109 25.7067 173.883 27.12C174.683 28.5333 175.083 30.36 175.083 32.6V45H167.483V33.84C167.483 32.2933 167.163 31.1733 166.523 30.48C165.909 29.76 165.043 29.4 163.923 29.4C163.123 29.4 162.389 29.5867 161.723 29.96C161.056 30.3067 160.536 30.8533 160.163 31.6C159.789 32.3467 159.603 33.32 159.603 34.52V45H152.003V23.32H159.243V29.48L157.843 27.68C158.669 26.1067 159.803 24.9333 161.243 24.16C162.683 23.36 164.309 22.96 166.123 22.96ZM191.208 45.36C188.808 45.36 186.661 44.88 184.768 43.92C182.901 42.96 181.434 41.64 180.368 39.96C179.301 38.2533 178.768 36.3067 178.768 34.12C178.768 31.9333 179.301 30 180.368 28.32C181.434 26.64 182.901 25.3333 184.768 24.4C186.661 23.44 188.808 22.96 191.208 22.96C193.661 22.96 195.781 23.48 197.568 24.52C199.354 25.56 200.621 27.0267 201.368 28.92L195.488 31.92C194.981 30.9067 194.354 30.1733 193.608 29.72C192.861 29.24 192.048 29 191.168 29C190.288 29 189.488 29.2 188.768 29.6C188.048 30 187.474 30.5867 187.048 31.36C186.648 32.1067 186.448 33.0267 186.448 34.12C186.448 35.24 186.648 36.1867 187.048 36.96C187.474 37.7333 188.048 38.32 188.768 38.72C189.488 39.12 190.288 39.32 191.168 39.32C192.048 39.32 192.861 39.0933 193.608 38.64C194.354 38.16 194.981 37.4133 195.488 36.4L201.368 39.4C200.621 41.2933 199.354 42.76 197.568 43.8C195.781 44.84 193.661 45.36 191.208 45.36ZM215.355 45.36C212.795 45.36 210.555 44.88 208.635 43.92C206.741 42.9333 205.261 41.6 204.195 39.92C203.155 38.2133 202.635 36.28 202.635 34.12C202.635 31.96 203.141 30.04 204.155 28.36C205.195 26.6533 206.621 25.3333 208.435 24.4C210.248 23.44 212.288 22.96 214.555 22.96C216.688 22.96 218.635 23.4 220.395 24.28C222.155 25.1333 223.555 26.4 224.595 28.08C225.635 29.76 226.155 31.8 226.155 34.2C226.155 34.4667 226.141 34.7733 226.115 35.12C226.088 35.4667 226.061 35.7867 226.035 36.08H208.875V32.08H221.995L219.115 33.2C219.141 32.2133 218.955 31.36 218.555 30.64C218.181 29.92 217.648 29.36 216.955 28.96C216.288 28.56 215.501 28.36 214.595 28.36C213.688 28.36 212.888 28.56 212.195 28.96C211.528 29.36 211.008 29.9333 210.635 30.68C210.261 31.4 210.075 32.2533 210.075 33.24V34.4C210.075 35.4667 210.288 36.3867 210.715 37.16C211.168 37.9333 211.808 38.5333 212.635 38.96C213.461 39.36 214.448 39.56 215.595 39.56C216.661 39.56 217.568 39.4133 218.315 39.12C219.088 38.8 219.848 38.32 220.595 37.68L224.595 41.84C223.555 42.9867 222.275 43.8667 220.755 44.48C219.235 45.0667 217.435 45.36 215.355 45.36ZM231.449 45.27C230.489 45.27 229.679 44.95 229.019 44.31C228.359 43.67 228.029 42.86 228.029 41.88C228.029 40.86 228.359 40.05 229.019 39.45C229.679 38.83 230.489 38.52 231.449 38.52C232.409 38.52 233.219 38.83 233.879 39.45C234.539 40.05 234.869 40.86 234.869 41.88C234.869 42.86 234.539 43.67 233.879 44.31C233.219 44.95 232.409 45.27 231.449 45.27Z" fill="black"/>
<ellipse cx="28" cy="27.5" rx="28" ry="27.5" fill="#0095E8"/>
<path d="M6.45 39.4194V14.9194H18.98C22.2 14.9194 24.6033 15.5144 26.19 16.7044C27.7767 17.8711 28.57 19.4111 28.57 21.3244C28.57 22.5844 28.2317 23.6928 27.555 24.6494C26.9017 25.5828 25.9683 26.3294 24.755 26.8894C23.565 27.4261 22.1417 27.6944 20.485 27.6944L21.185 26.0144C22.9117 26.0144 24.4167 26.2828 25.7 26.8194C26.9833 27.3328 27.975 28.0911 28.675 29.0944C29.3983 30.0744 29.76 31.2761 29.76 32.6994C29.76 34.8228 28.8967 36.4794 27.17 37.6694C25.4667 38.8361 22.97 39.4194 19.68 39.4194H6.45ZM13.31 34.4144H19.12C20.31 34.4144 21.2083 34.2161 21.815 33.8194C22.445 33.3994 22.76 32.7694 22.76 31.9294C22.76 31.0894 22.445 30.4711 21.815 30.0744C21.2083 29.6544 20.31 29.4444 19.12 29.4444H12.82V24.6494H18.07C19.2367 24.6494 20.1117 24.4511 20.695 24.0544C21.2783 23.6578 21.57 23.0628 21.57 22.2694C21.57 21.4761 21.2783 20.8928 20.695 20.5194C20.1117 20.1228 19.2367 19.9244 18.07 19.9244H13.31V34.4144ZM36.2894 46.5244C35.2861 46.5244 34.2711 46.3611 33.2444 46.0344C32.2411 45.7311 31.4244 45.3228 30.7944 44.8094L33.1044 40.1544C33.5011 40.5044 33.9561 40.7728 34.4694 40.9594C35.0061 41.1694 35.5311 41.2744 36.0444 41.2744C36.7677 41.2744 37.3394 41.1111 37.7594 40.7844C38.1794 40.4578 38.5411 39.9444 38.8444 39.2444L39.7194 37.0394L40.2444 36.3744L46.6844 20.4494H53.0194L44.8294 40.1894C44.1761 41.8228 43.4177 43.0944 42.5544 44.0044C41.7144 44.9378 40.7694 45.5911 39.7194 45.9644C38.6927 46.3378 37.5494 46.5244 36.2894 46.5244ZM38.8794 40.2244L30.5144 20.4494H37.3394L43.4994 35.7794L38.8794 40.2244Z" fill="white"/>
</svg>
