<svg width="31" height="30" viewBox="0 0 31 30" fill="none" xmlns="http://www.w3.org/2000/svg">
<path d="M15.6875 2.57788C8.81465 2.57788 3.23669 8.15584 3.23669 15.0287C3.23669 21.9015 8.81465 27.4795 15.6875 27.4795C22.5603 27.4795 28.1383 21.9015 28.1383 15.0287C28.1383 8.15584 22.5603 2.57788 15.6875 2.57788ZM21.4647 11.0444C21.2779 13.0116 20.4686 17.7927 20.0577 19.9965C19.8834 20.9303 19.5348 21.2416 19.2111 21.279C18.4889 21.3412 17.9411 20.8058 17.2438 20.3452C16.1482 19.623 15.5256 19.1748 14.4673 18.4775C13.2347 17.6682 14.0315 17.22 14.7412 16.4979C14.928 16.3111 18.1154 13.4101 18.1776 13.1486C18.1863 13.109 18.1851 13.0679 18.1743 13.0288C18.1634 12.9898 18.1432 12.954 18.1154 12.9245C18.0407 12.8622 17.9411 12.8871 17.8539 12.8996C17.7419 12.9245 15.9988 14.0824 12.5997 16.3734C12.1017 16.7095 11.6534 16.8838 11.255 16.8714C10.8068 16.8589 9.96012 16.6224 9.32513 16.4107C8.54073 16.1617 7.93064 16.0247 7.98045 15.589C8.00535 15.3648 8.31662 15.1407 8.90181 14.9042C12.5374 13.3229 14.9529 12.277 16.1606 11.779C19.6219 10.3347 20.3316 10.0857 20.8048 10.0857C20.9044 10.0857 21.1409 10.1106 21.2903 10.2351C21.4149 10.3347 21.4522 10.4717 21.4647 10.5713C21.4522 10.646 21.4771 10.8701 21.4647 11.0444Z" fill="#3D3D3D"/>
</svg>
