<svg width="29" height="30" viewBox="0 0 29 30" fill="none" xmlns="http://www.w3.org/2000/svg">
<path d="M14.5812 2.5C7.66252 2.5 2.05261 8.10991 2.05261 15.0286C2.05261 21.9473 7.66252 27.5572 14.5812 27.5572C21.4999 27.5572 27.1098 21.9473 27.1098 15.0286C27.1098 8.10991 21.4999 2.5 14.5812 2.5ZM20.6022 11.944C20.6106 12.0754 20.6106 12.2125 20.6106 12.3467C20.6106 16.4521 17.4841 21.1811 11.7707 21.1811C10.0088 21.1811 8.37565 20.6693 6.99974 19.7884C7.25143 19.8163 7.49193 19.8275 7.74922 19.8275C9.20343 19.8275 10.5402 19.3353 11.6057 18.5019C10.241 18.474 9.09436 17.5791 8.70284 16.3486C9.18106 16.4185 9.61173 16.4185 10.1039 16.2927C9.40122 16.1499 8.76961 15.7683 8.3164 15.2126C7.8632 14.6569 7.61634 13.9615 7.61778 13.2444V13.2052C8.02887 13.4374 8.51268 13.58 9.01886 13.5996C8.59334 13.316 8.24437 12.9318 8.00289 12.481C7.76142 12.0303 7.6349 11.5269 7.63456 11.0155C7.63456 10.4367 7.78557 9.9081 8.05684 9.44946C8.83681 10.4096 9.81009 11.1949 10.9134 11.7543C12.0168 12.3137 13.2255 12.6346 14.461 12.6963C14.0219 10.5849 15.5992 8.87617 17.4952 8.87617C18.3901 8.87617 19.1956 9.25091 19.7633 9.85497C20.4652 9.72353 21.1364 9.46065 21.7348 9.10828C21.5027 9.827 21.0161 10.4339 20.3701 10.817C20.9965 10.7499 21.6006 10.5765 22.1599 10.3332C21.7376 10.954 21.2091 11.5049 20.6022 11.944Z" fill="#3D3D3D"/>
</svg>
