<svg width="29" height="29" viewBox="0 0 29 29" fill="none" xmlns="http://www.w3.org/2000/svg">
<path d="M14.5 15.7084V25.375L9.66666 20.5417" stroke="black" stroke-opacity="0.5" stroke-width="2.5" stroke-linecap="round" stroke-linejoin="round"/>
<path d="M14.5 25.375L19.3333 20.5416" stroke="black" stroke-opacity="0.5" stroke-width="2.5" stroke-linecap="round" stroke-linejoin="round"/>
<path d="M5.30822 18.45C4.32134 17.5867 3.54867 16.5057 3.05126 15.2925C2.55384 14.0793 2.34529 12.7671 2.44208 11.4595C2.53887 10.1518 2.93834 8.8846 3.60896 7.75785C4.27957 6.63111 5.20296 5.6757 6.3062 4.96708C7.40944 4.25846 8.66232 3.81603 9.9659 3.67474C11.2695 3.53345 12.5881 3.69716 13.8175 4.15294C15.0469 4.60873 16.1536 5.3441 17.0501 6.301C17.9465 7.25789 18.6082 8.4101 18.9829 9.66663H21.1458C22.3204 9.66649 23.4635 10.0467 24.404 10.7503C25.3444 11.454 26.0318 12.4433 26.3632 13.5701C26.6945 14.697 26.6521 15.9009 26.2422 17.0016C25.8323 18.1024 25.077 19.0408 24.0893 19.6765" stroke="black" stroke-opacity="0.5" stroke-width="2.5" stroke-linecap="round" stroke-linejoin="round"/>
</svg>
