<svg width="31" height="31" viewBox="0 0 31 31" fill="none" xmlns="http://www.w3.org/2000/svg">
<path d="M11.625 16.7917C12.3384 16.7917 12.9167 16.2134 12.9167 15.5C12.9167 14.7867 12.3384 14.2084 11.625 14.2084C10.9117 14.2084 10.3334 14.7867 10.3334 15.5C10.3334 16.2134 10.9117 16.7917 11.625 16.7917Z" stroke="black" stroke-width="2.58333" stroke-linecap="round" stroke-linejoin="round"/>
<path d="M11.625 7.74996C12.3384 7.74996 12.9167 7.17166 12.9167 6.45829C12.9167 5.74492 12.3384 5.16663 11.625 5.16663C10.9117 5.16663 10.3334 5.74492 10.3334 6.45829C10.3334 7.17166 10.9117 7.74996 11.625 7.74996Z" stroke="black" stroke-width="2.58333" stroke-linecap="round" stroke-linejoin="round"/>
<path d="M11.625 25.8333C12.3384 25.8333 12.9167 25.255 12.9167 24.5417C12.9167 23.8283 12.3384 23.25 11.625 23.25C10.9117 23.25 10.3334 23.8283 10.3334 24.5417C10.3334 25.255 10.9117 25.8333 11.625 25.8333Z" stroke="black" stroke-width="2.58333" stroke-linecap="round" stroke-linejoin="round"/>
<path d="M19.375 16.7917C20.0884 16.7917 20.6667 16.2134 20.6667 15.5C20.6667 14.7867 20.0884 14.2084 19.375 14.2084C18.6617 14.2084 18.0834 14.7867 18.0834 15.5C18.0834 16.2134 18.6617 16.7917 19.375 16.7917Z" stroke="black" stroke-width="2.58333" stroke-linecap="round" stroke-linejoin="round"/>
<path d="M19.375 7.74996C20.0884 7.74996 20.6667 7.17166 20.6667 6.45829C20.6667 5.74492 20.0884 5.16663 19.375 5.16663C18.6617 5.16663 18.0834 5.74492 18.0834 6.45829C18.0834 7.17166 18.6617 7.74996 19.375 7.74996Z" stroke="black" stroke-width="2.58333" stroke-linecap="round" stroke-linejoin="round"/>
<path d="M19.375 25.8333C20.0884 25.8333 20.6667 25.255 20.6667 24.5417C20.6667 23.8283 20.0884 23.25 19.375 23.25C18.6617 23.25 18.0834 23.8283 18.0834 24.5417C18.0834 25.255 18.6617 25.8333 19.375 25.8333Z" stroke="black" stroke-width="2.58333" stroke-linecap="round" stroke-linejoin="round"/>
</svg>
