<svg width="22" height="21" viewBox="0 0 22 21" fill="none" xmlns="http://www.w3.org/2000/svg">
<path d="M19.6856 20.5714L12.4856 13.3714C11.9141 13.8286 11.257 14.1905 10.5141 14.4571C9.77128 14.7238 8.98081 14.8571 8.14271 14.8571C6.06652 14.8571 4.30957 14.1379 2.87186 12.6994C1.43414 11.261 0.714904 9.504 0.714142 7.42857C0.714142 5.35238 1.43338 3.59543 2.87186 2.15771C4.31033 0.72 6.06728 0.000761905 8.14271 0C10.2189 0 11.9762 0.719238 13.4147 2.15771C14.8532 3.59619 15.572 5.35314 15.5713 7.42857C15.5713 8.26667 15.438 9.05714 15.1713 9.8C14.9046 10.5429 14.5427 11.2 14.0856 11.7714L21.2856 18.9714L19.6856 20.5714ZM8.14271 12.5714C9.57128 12.5714 10.7858 12.0716 11.7861 11.072C12.7865 10.0724 13.2863 8.8579 13.2856 7.42857C13.2856 6 12.7858 4.7859 11.7861 3.78629C10.7865 2.78667 9.57205 2.28648 8.14271 2.28571C6.71414 2.28571 5.50005 2.7859 4.50043 3.78629C3.50081 4.78667 3.00062 6.00076 2.99986 7.42857C2.99986 8.85714 3.50005 10.0716 4.50043 11.072C5.50081 12.0724 6.7149 12.5722 8.14271 12.5714Z" fill="white"/>
</svg>
